<svg width="390" height="240" viewBox="0 0 390 240" fill="none" xmlns="http://www.w3.org/2000/svg">
<g clip-path="url(#clip0_2841_5957)">
<path d="M39.7799 227.3C49.5299 227.3 56.1599 223.79 60.1899 221.06V208.45C54.9899 212.22 49.2699 215.08 40.9499 215.08C26.6499 215.08 19.8899 203.51 19.8899 180.89C19.8899 157.62 26.3899 146.57 41.7299 146.57C48.8799 146.57 55.5099 149.69 60.1899 152.68V140.07C56.0299 137.08 49.2699 134.35 40.9499 134.35C16.8999 134.35 3.8999 152.03 3.8999 180.89C3.8999 210.53 17.4199 227.3 39.7799 227.3Z" fill="black"/>
<path d="M86.0812 135.65H70.6112V226H86.0812V135.65Z" fill="black"/>
<path d="M125.309 159.31C108.279 159.31 96.4487 171.4 96.4487 193.37C96.4487 215.21 108.279 227.3 125.309 227.3C142.339 227.3 154.169 215.21 154.169 193.24C154.169 171.4 142.339 159.31 125.309 159.31ZM125.309 215.08C116.729 215.08 112.439 208.45 112.439 193.37C112.439 178.16 116.729 171.53 125.309 171.53C133.889 171.53 138.179 178.16 138.179 193.24C138.179 208.45 133.889 215.08 125.309 215.08Z" fill="black"/>
<path d="M200.307 207.54C197.447 211.05 192.897 214.04 187.307 214.04C181.847 214.04 179.377 211.7 179.377 206.76V160.61H163.907V208.32C163.907 221.32 169.107 227.04 181.717 227.04C190.947 227.04 196.407 223.66 199.527 220.54H200.307L200.697 226H215.777V160.61H200.307V207.54Z" fill="black"/>
<path d="M250.895 227.3C258.175 227.3 264.155 223.92 268.315 217.55L269.095 226H283.395V135.65H267.925V168.28C264.025 162.43 258.305 159.31 251.545 159.31C236.595 159.31 226.195 171.92 226.195 193.76C226.195 215.34 236.335 227.3 250.895 227.3ZM255.445 171.53C263.765 171.53 267.925 178.16 267.925 193.24C267.925 208.45 263.505 215.08 254.795 215.08C246.345 215.08 242.185 208.58 242.185 193.76C242.185 178.29 246.605 171.53 255.445 171.53Z" fill="black"/>
<path d="M50.87 105V89.66C50.87 78.09 49.44 74.71 45.02 65.09L21.88 14.65H5.5L35.14 79.13V105H50.87ZM61.14 58.33L80.38 14.65H64.39L45.15 58.33H61.14ZM225.46 106.3C232.74 106.3 238.72 102.92 242.88 96.55L243.66 105H257.96V14.65H242.49V47.28C238.59 41.43 232.87 38.31 226.11 38.31C211.16 38.31 200.76 50.92 200.76 72.76C200.76 94.34 210.9 106.3 225.46 106.3ZM320.49 100.58V87.97C315.68 91.22 307.62 94.08 300.08 94.08C288.77 94.08 284.48 88.75 283.83 77.83H321.14V69.64C321.14 46.89 311.13 38.31 295.66 38.31C276.81 38.31 267.84 52.74 267.84 72.5C267.84 95.25 279.02 106.3 298.78 106.3C308.66 106.3 315.94 103.7 320.49 100.58ZM125.88 60.41C125.88 44.55 117.82 38.57 101.44 38.57C91.3 38.57 83.11 42.86 78.43 46.24V59.63C83.37 55.6 90.91 50.92 99.62 50.92C107.03 50.92 110.41 53.52 110.41 60.54V64.7H107.94C84.28 64.7 73.75 72.37 73.75 86.02C73.75 98.63 81.81 105.91 93.77 105.91C102.87 105.91 106.77 102.92 109.76 99.8H110.41C110.54 101.49 111.06 103.7 111.58 105H126.66C126.14 99.67 125.88 94.34 125.88 89.01V60.41ZM153.96 58.07C156.82 54.56 161.37 51.57 166.96 51.57C172.42 51.57 174.89 53.91 174.89 58.85V105H190.36V57.29C190.36 44.29 185.16 38.57 172.55 38.57C163.32 38.57 157.86 41.95 154.74 45.07H153.96L153.57 39.61H138.49V105H153.96V58.07ZM368.07 105H385.49L364.17 71.33L382.63 39.61H367.16L355.98 59.37L343.5 39.61H326.08L345.84 70.94L325.3 105H341.03L354.16 82.9L368.07 105ZM230.01 50.53C238.33 50.53 242.49 57.16 242.49 72.24C242.49 87.45 238.07 94.08 229.36 94.08C220.91 94.08 216.75 87.58 216.75 72.76C216.75 57.29 221.17 50.53 230.01 50.53ZM295.4 50.53C303.07 50.53 305.41 56.9 305.41 65.09V66.39H283.83C284.22 55.99 287.99 50.53 295.4 50.53ZM110.41 89.4C108.46 92.26 104.82 94.6 99.36 94.6C92.86 94.6 89.61 90.83 89.61 85.11C89.61 77.57 94.94 74.97 108.2 74.97H110.41V89.4Z" fill="black"/>
</g>
<defs>
<clipPath id="clip0_2841_5957">
<rect width="390" height="240" fill="white"/>
</clipPath>
</defs>
</svg>
